<svg width="384" height="335" viewBox="0 0 384 335" fill="none" xmlns="http://www.w3.org/2000/svg">
<rect width="384" height="335" fill="#E5E5E5"/>
<rect width="384" height="335" fill="white"/>
<path d="M90.788 189.815H78V145.065H112.051V156.777H90.788V162.101H104.639V169.037H90.788V189.815Z" fill="#0C2836"/>
<path d="M140.816 145.065H154.667V170.649C154.667 176.642 152.753 181.51 148.957 185.282C145.129 189.024 139.965 190.91 133.404 190.91C126.843 190.91 121.649 189.024 117.822 185.282C113.995 181.54 112.111 176.642 112.111 170.649V145.065H125.962V170.771C125.962 173.448 126.691 175.486 128.15 176.977C129.608 178.437 131.369 179.167 133.404 179.167C135.44 179.167 137.201 178.437 138.659 176.977C140.117 175.517 140.846 173.448 140.846 170.771V145.065H140.816Z" fill="#0C2836"/>
<path d="M202.781 182.575L209.646 189.845H196.858L195.583 188.172C191.937 189.998 188.11 190.91 184.07 190.91C177.327 190.91 171.556 188.629 166.787 184.035C161.988 179.472 159.588 173.935 159.588 167.455C159.588 160.975 161.988 155.439 166.787 150.875C171.586 146.312 177.327 144 184.07 144C190.814 144 196.585 146.282 201.354 150.875C206.153 155.439 208.553 160.975 208.553 167.455C208.583 173.174 206.639 178.224 202.781 182.575ZM194.216 173.357C195.279 171.501 195.826 169.524 195.826 167.425C195.826 164.17 194.671 161.432 192.393 159.12C190.115 156.838 187.351 155.682 184.101 155.682C180.851 155.682 178.117 156.838 175.808 159.12C173.53 161.401 172.376 164.17 172.376 167.425C172.376 170.68 173.53 173.418 175.808 175.73C178.086 178.011 180.851 179.167 184.101 179.167C185.468 179.167 186.834 178.924 188.171 178.437L183.038 171.714H192.606L194.216 173.357Z" fill="#0C2836"/>
<path d="M225.715 190.758C222.13 190.758 219.093 189.45 216.633 186.864C214.172 184.278 212.927 180.597 212.927 175.821V155.56H225.715V173.692C225.715 175.547 226.17 176.916 227.112 177.768C228.054 178.62 229.178 179.046 230.514 179.046C231.79 179.046 232.914 178.589 233.886 177.707C234.827 176.825 235.313 175.486 235.313 173.722V155.591H248.101V189.693H235.313V185.434C234.372 187.168 233.035 188.476 231.334 189.389C229.572 190.302 227.719 190.758 225.715 190.758Z" fill="#0C2836"/>
<path d="M265.567 157.02C264.2 158.389 262.59 159.059 260.677 159.059C258.763 159.059 257.153 158.389 255.786 157.02C254.419 155.651 253.751 154.039 253.751 152.123C253.751 150.206 254.419 148.594 255.786 147.225C257.153 145.856 258.763 145.186 260.677 145.186C262.59 145.186 264.2 145.856 265.567 147.225C266.934 148.594 267.602 150.206 267.602 152.123C267.602 154.039 266.934 155.682 265.567 157.02Z" fill="url(#paint0_linear_0_1)"/>
<path d="M304.721 189.663H271.733L286.647 166.208H272.796V155.56H305.784L290.87 179.015H304.721V189.663V189.663Z" fill="#0C2836"/>
<path d="M259.887 189.359C258.702 186.56 257.912 183.761 256.91 180.962C256.029 178.164 255.3 175.365 254.693 172.566C254.085 169.767 252.08 166.968 253.204 164.2C253.66 162.801 254.328 161.401 255.422 160.002C256.454 158.602 257.791 157.203 259.948 155.834H261.436C263.593 157.233 264.899 158.633 265.932 160.032C267.025 161.432 267.693 162.831 268.149 164.23C269.273 167.029 267.268 169.828 266.63 172.596C265.992 175.395 265.233 178.164 264.352 180.962C263.35 183.761 262.529 186.53 261.345 189.328L259.887 189.359Z" fill="#0C2836"/>
<defs>
<linearGradient id="paint0_linear_0_1" x1="253.763" y1="152.134" x2="267.601" y2="152.134" gradientUnits="userSpaceOnUse">
<stop stop-color="#FCF45E"/>
<stop offset="0.3771" stop-color="#FEA241"/>
<stop offset="1" stop-color="#EF5A0F"/>
</linearGradient>
</defs>
</svg>
