<svg width="384" height="335" viewBox="0 0 384 335" fill="none" xmlns="http://www.w3.org/2000/svg">
<rect width="384" height="335" fill="#E5E5E5"/>
<rect width="384" height="335" fill="white"/>
<g clip-path="url(#clip0_0_1)">
<path d="M90.5783 317.905H77.7903V273.155H111.841V284.867H90.5783V290.191H104.429V297.127H90.5783V317.905Z" fill="#0C2836"/>
<path d="M140.606 273.155H154.457V298.739C154.457 304.732 152.544 309.6 148.747 313.372C144.92 317.114 139.756 319 133.195 319C126.634 319 121.44 317.114 117.612 313.372C113.785 309.63 111.902 304.732 111.902 298.739V273.155H125.753V298.861C125.753 301.538 126.482 303.576 127.94 305.067C129.398 306.527 131.16 307.257 133.195 307.257C135.23 307.257 136.992 306.527 138.45 305.067C139.908 303.607 140.637 301.538 140.637 298.861V273.155H140.606Z" fill="#0C2836"/>
<path d="M202.572 310.664L209.437 317.935H196.649L195.373 316.262C191.728 318.087 187.901 319 183.861 319C177.117 319 171.346 316.718 166.577 312.125C161.778 307.561 159.378 302.025 159.378 295.545C159.378 289.065 161.778 283.528 166.577 278.965C171.376 274.402 177.117 272.09 183.861 272.09C190.604 272.09 196.375 274.371 201.144 278.965C205.943 283.528 208.343 289.065 208.343 295.545C208.373 301.264 206.429 306.314 202.572 310.664ZM194.006 301.447C195.069 299.591 195.616 297.614 195.616 295.514C195.616 292.259 194.462 289.521 192.183 287.209C189.905 284.928 187.141 283.772 183.891 283.772C180.641 283.772 177.907 284.928 175.599 287.209C173.32 289.491 172.166 292.259 172.166 295.514C172.166 298.77 173.32 301.508 175.599 303.82C177.877 306.101 180.641 307.257 183.891 307.257C185.258 307.257 186.625 307.014 187.961 306.527L182.828 299.804H192.396L194.006 301.447Z" fill="#0C2836"/>
<path d="M225.505 318.848C221.921 318.848 218.883 317.54 216.423 314.954C213.962 312.368 212.717 308.687 212.717 303.911V283.65H225.505V301.781C225.505 303.637 225.961 305.006 226.902 305.858C227.844 306.71 228.968 307.136 230.304 307.136C231.58 307.136 232.704 306.679 233.676 305.797C234.618 304.915 235.104 303.576 235.104 301.812V283.68H247.892V317.783H235.104V313.524C234.162 315.258 232.826 316.566 231.124 317.479C229.363 318.392 227.51 318.848 225.505 318.848Z" fill="#0C2836"/>
<path d="M265.357 285.11C263.99 286.479 262.381 287.149 260.467 287.149C258.553 287.149 256.943 286.479 255.577 285.11C254.21 283.741 253.541 282.129 253.541 280.212C253.541 278.296 254.21 276.683 255.577 275.314C256.943 273.945 258.553 273.276 260.467 273.276C262.381 273.276 263.99 273.945 265.357 275.314C266.724 276.683 267.392 278.296 267.392 280.212C267.392 282.129 266.724 283.772 265.357 285.11Z" fill="url(#paint0_linear_0_1)"/>
<path d="M304.511 317.753H271.523L286.438 294.298H272.587V283.65H305.574L290.66 307.105H304.511V317.753V317.753Z" fill="#0C2836"/>
<path d="M259.677 317.449C258.493 314.65 257.703 311.851 256.7 309.052C255.82 306.253 255.091 303.455 254.483 300.656C253.876 297.857 251.871 295.058 252.995 292.29C253.45 290.89 254.119 289.491 255.212 288.092C256.245 286.692 257.581 285.293 259.738 283.924H261.226C263.383 285.323 264.689 286.723 265.722 288.122C266.815 289.521 267.484 290.921 267.939 292.32C269.063 295.119 267.058 297.918 266.42 300.686C265.783 303.485 265.023 306.253 264.142 309.052C263.14 311.851 262.32 314.619 261.135 317.418L259.677 317.449Z" fill="#0C2836"/>
<path d="M293.272 114.779C298.649 125.731 301.96 137.991 302.537 150.555C303.448 163.119 301.686 176.049 297.586 188.278C293.394 200.508 286.833 212.007 278.449 222.077C270.066 232.207 259.586 240.573 248.013 247.114C224.867 260.469 196.649 264.18 170.253 259.191C143.674 254.111 119.161 239.021 102.182 217.757C93.7374 207.079 87.1459 194.88 82.9238 181.859C78.8839 168.778 77.274 154.997 78.1852 141.429C79.8559 114.262 92.0971 87.8865 111.811 69.8464C121.531 60.7503 132.709 53.3274 144.828 48.3383C156.948 43.3491 169.797 40.5199 182.646 39.9115C208.282 39.0901 233.798 47.3648 252.478 63.1536C230.669 52.2627 206.46 48.5512 183.891 52.5669C161.353 56.4304 140.91 67.8081 126.239 83.9925C111.568 100.238 103.184 121.32 102.728 142.585C101.939 163.88 109.107 185.084 122.472 201.572C135.625 218.152 154.549 230.351 175.447 235.158C196.314 239.904 219.035 238.261 238.961 229.104C258.796 219.947 275.989 203.945 285.952 183.441C291.176 173.311 294.275 161.994 295.459 150.342C296.917 138.752 295.976 126.674 293.272 114.779Z" fill="#0C2836"/>
<path d="M319 60.0202L195.099 218.578L115.425 155.453L130.096 123.328L192.396 185.145L293.333 21.628L319 60.0202Z" fill="url(#paint1_linear_0_1)"/>
<path d="M128.061 48.3078L134.167 21.1108L80.3419 36.9605L64 86.2437L89.8189 82.5322L80.0685 79.7334C81.7999 73.5274 85.7183 64.7051 96.4711 54.5443L98.2025 58.0428L98.324 58.0123C87.3585 68.6904 84.6552 78.1515 84.6552 78.1515L103.549 85.6961L131.372 60.2027L128.061 48.3078Z" fill="#0C2836"/>
<path d="M68.9815 82.5018C69.5587 89.9247 69.9535 97.3172 70.2269 104.74C70.3484 108.451 70.9255 112.163 70.4699 115.844C70.0447 119.525 69.3764 123.206 67.8576 126.887H67.3413C66.0048 123.145 65.5491 119.434 65.3061 115.753C65.0328 112.041 65.7921 108.36 66.0959 104.679C66.7338 97.2867 67.5235 89.9247 68.4652 82.5322L68.9815 82.5018Z" fill="url(#paint2_linear_0_1)"/>
</g>
<defs>
<linearGradient id="paint0_linear_0_1" x1="253.553" y1="280.224" x2="267.392" y2="280.224" gradientUnits="userSpaceOnUse">
<stop stop-color="#FCF45E"/>
<stop offset="0.3771" stop-color="#FEA241"/>
<stop offset="1" stop-color="#EF5A0F"/>
</linearGradient>
<linearGradient id="paint1_linear_0_1" x1="128.28" y1="96.4114" x2="302.791" y2="134.427" gradientUnits="userSpaceOnUse">
<stop stop-color="#FCF45E"/>
<stop offset="0.3771" stop-color="#FEA241"/>
<stop offset="1" stop-color="#EF5A0F"/>
</linearGradient>
<linearGradient id="paint2_linear_0_1" x1="61.2881" y1="103.05" x2="75.074" y2="106.303" gradientUnits="userSpaceOnUse">
<stop stop-color="#FCF45E"/>
<stop offset="0.3771" stop-color="#FEA241"/>
<stop offset="1" stop-color="#EF5A0F"/>
</linearGradient>
<clipPath id="clip0_0_1">
<rect width="255" height="303" fill="white" transform="translate(64 16)"/>
</clipPath>
</defs>
</svg>
