<svg width="384" height="335" viewBox="0 0 384 335" fill="none" xmlns="http://www.w3.org/2000/svg">
<rect width="384" height="335" fill="#E5E5E5"/>
<rect width="384" height="335" fill="white"/>
<path d="M293.272 140.668C298.649 151.62 301.96 163.88 302.537 176.444C303.448 189.008 301.686 201.938 297.586 214.167C293.394 226.397 286.833 237.896 278.449 247.966C270.066 258.096 259.586 266.462 248.013 273.003C224.867 286.358 196.649 290.069 170.253 285.08C143.674 280 119.161 264.911 102.182 243.646C93.7374 232.968 87.1459 220.769 82.9238 207.748C78.8839 194.667 77.274 180.886 78.1852 167.318C79.8559 140.151 92.0971 113.776 111.811 95.7356C121.531 86.6395 132.709 79.2166 144.828 74.2274C156.948 69.2383 169.797 66.4091 182.646 65.8006C208.282 64.9792 233.798 73.2539 252.478 89.0428C230.669 78.1518 206.46 74.4404 183.891 78.456C161.353 82.3196 140.91 93.6973 126.239 109.882C111.568 126.127 103.184 147.209 102.728 168.474C101.939 189.769 109.107 210.973 122.472 227.461C135.625 244.041 154.549 256.24 175.447 261.047C196.314 265.793 219.035 264.15 238.961 254.993C258.796 245.836 275.989 229.834 285.952 209.33C291.176 199.2 294.275 187.883 295.459 176.231C296.917 164.641 295.976 152.563 293.272 140.668Z" fill="#0C2836"/>
<path d="M319 85.9093L195.099 244.467L115.425 181.342L130.096 149.217L192.396 211.034L293.333 47.5172L319 85.9093Z" fill="url(#paint0_linear_0_1)"/>
<path d="M128.061 74.197L134.167 47L80.3419 62.8497L64 112.133L89.8189 108.421L80.0685 105.623C81.7999 99.4166 85.7183 90.5943 96.4711 80.4334L98.2025 83.9319L98.324 83.9015C87.3585 94.5795 84.6552 104.041 84.6552 104.041L103.549 111.585L131.372 86.0919L128.061 74.197Z" fill="#0C2836"/>
<path d="M68.9815 108.391C69.5587 115.814 69.9535 123.206 70.2269 130.629C70.3484 134.341 70.9255 138.052 70.4699 141.733C70.0447 145.414 69.3764 149.095 67.8576 152.776H67.3413C66.0048 149.034 65.5491 145.323 65.3061 141.642C65.0328 137.93 65.7921 134.249 66.0959 130.568C66.7338 123.176 67.5235 115.814 68.4652 108.421L68.9815 108.391Z" fill="url(#paint1_linear_0_1)"/>
<defs>
<linearGradient id="paint0_linear_0_1" x1="128.28" y1="122.301" x2="302.791" y2="160.316" gradientUnits="userSpaceOnUse">
<stop stop-color="#FCF45E"/>
<stop offset="0.3771" stop-color="#FEA241"/>
<stop offset="1" stop-color="#EF5A0F"/>
</linearGradient>
<linearGradient id="paint1_linear_0_1" x1="61.2881" y1="128.94" x2="75.074" y2="132.192" gradientUnits="userSpaceOnUse">
<stop stop-color="#FCF45E"/>
<stop offset="0.3771" stop-color="#FEA241"/>
<stop offset="1" stop-color="#EF5A0F"/>
</linearGradient>
</defs>
</svg>
